<?xml version="1.0" encoding="utf-8"?>
<!-- Generator: Adobe Illustrator 28.3.0, SVG Export Plug-In . SVG Version: 6.00 Build 0)  -->
<svg version="1.1" id="Layer_1" xmlns="http://www.w3.org/2000/svg" xmlns:xlink="http://www.w3.org/1999/xlink" x="0px" y="0px"
	 viewBox="0 0 205.5 124" style="enable-background:new 0 0 205.5 124;" xml:space="preserve">
<style type="text/css">
	.st0{fill-rule:evenodd;clip-rule:evenodd;fill:#EC1E27;}
	.st1{fill:none;}
	.st2{clip-path:url(#SVGID_00000149378092243817822700000016259343677957631661_);}
	.st3{fill:#4E4D4E;}
	.st4{fill:#479B6C;}
	.st5{fill:#5DBD79;}
	.st6{fill:#FFCC05;}
	.st7{fill:#C81930;}
	.st8{fill-rule:evenodd;clip-rule:evenodd;fill:#0094D9;}
	.st9{fill:#105DA9;}
	.st10{fill:#B2B2B2;}
	.st11{fill:#5E5A4F;}
	.st12{fill:#AACB1C;}
	.st13{fill:#FFFFFF;}
	.st14{fill:#25A906;}
	.st15{fill:#18136E;}
	.st16{fill:#006DBA;}
	.st17{fill:#59595C;}
	.st18{fill:#F26726;}
	.st19{fill:#5A5A5D;}
	.st20{fill:#5C5A5D;}
	.st21{fill:#0047BA;}
	.st22{fill:#92CF53;}
	.st23{fill:#010101;}
	.st24{fill:#ED2224;}
	.st25{fill:#FAF9F9;}
</style>
<g>
	<g>
		<path class="st23" d="M83.5,44.3c1,1.1,2,2.1,3,3.2c1.7,1.8,3.4,3.6,5,5.4c1.7,1.8,3.4,3.6,5.1,5.5c1.7,1.8,3.4,3.6,5,5.4
			c0.6,0.6,1.1,1.2,1.7,1.8c0.2,0.3,0.4,0.3,0.7,0c0.9-1.1,1.9-2,2.9-3c1.8-1.9,3.7-3.7,5.5-5.6c1.1-1.1,2.1-2.2,3.2-3.3
			c0.9-1,1.9-2,2.8-3c1.2-1.4,2.4-2.8,3.4-4.3c0.9-1.4,1.6-2.9,2.1-4.5c0.4-1.3,0.7-2.7,0.8-4.1c0-0.4,0.1-0.8,0.1-1.2
			c0-0.7,0.1-1.4,0-2.1c0-1.2-0.1-2.3-0.3-3.4c-0.3-1.7-0.8-3.4-1.6-5c-0.6-1.3-1.2-2.4-2-3.6c-0.6-0.9-1.3-1.7-2-2.5
			c-1.2-1.2-2.6-2.1-4-3c-0.9-0.5-1.8-1-2.8-1.4c-1.7-0.7-3.5-1.3-5.4-1.6c-0.7-0.1-1.4-0.2-2.1-0.2c-0.1-0.1-0.3,0-0.4,0
			c-0.6,0-1.1,0-1.7,0c-0.1,0-0.3,0-0.5,0.1c-1,0-2,0.2-2.9,0.4c-1.6,0.3-3.1,1-4.6,1.6c-1.6,0.6-2.9,1.7-4.2,2.7
			c-2.3,1.9-4.5,4-6.7,6c-2.7,2.5-5.2,5.1-7.8,7.7c-0.1,0.1-0.2,0.2-0.4,0.4c0-0.9,0.2-1.7,0.4-2.4c0.4-1.8,1.1-3.7,1.8-5.4
			c0.8-1.9,1.5-3.7,2.6-5.4c1.1-1.7,2.6-3,4-4.4c1.7-1.6,3.5-3,5.5-4.2c1.9-1.2,4-2.1,6.2-2.7c1.9-0.5,3.8-0.8,5.7-0.9
			c0.2-0.1,0.4,0,0.5-0.1c0.7,0,1.3,0,2,0c0.2,0.1,0.4,0,0.5,0c2.7,0.2,5.3,0.7,7.9,1.5c3.4,1.2,6.5,2.9,9.3,5.2
			c3.9,3.3,6.6,7.4,8.4,12.2c0.7,1.9,1.2,3.9,1.5,6c0.2,1.7,0.3,3.4,0.3,5.1c-0.2,3.8-1.1,7.5-2.9,10.9c-0.9,1.8-2.1,3.4-3.4,4.9
			c-1.8,2.2-3.8,4.1-5.8,6c-2.6,2.5-5.1,5-7.6,7.5c-2,2-4,4.1-6,6.1c-0.8,0.8-1.6,1.7-2.4,2.5c-0.2,0.2-0.3,0.2-0.5,0
			c-0.9-1-1.9-2-2.9-3c-1.1-1.2-2.2-2.3-3.3-3.5c-1.1-1.2-2.2-2.3-3.3-3.4c-1.1-1.2-2.2-2.3-3.3-3.4c-1.1-1.2-2.2-2.3-3.3-3.5
			C86.1,57.3,85,56.1,84,55c-0.7-0.8-1.4-1.5-2.1-2.2c-0.9-1-1.8-1.9-2.8-2.9c-0.2-0.2-0.3-0.6-0.6-0.6c-0.6-0.7-0.6-0.7,0-1.3
			c1.4-1.3,2.7-2.7,4.1-4C83,43.7,83.2,43.8,83.5,44.3z"/>
		<path class="st24" d="M83.5,44.3c-0.6-0.5-0.6-0.5-1.1,0c-1.3,1.3-2.6,2.6-4,3.8c-0.3,0.3-0.4,0.5,0,0.8c0.1,0.1,0.2,0.2,0.1,0.3
			c0,0-0.1,0-0.1,0c-0.4,0.4-0.5,0.4-0.8-0.1c-0.6-0.7-1.3-1.5-1.9-2.2c-0.6-0.7-1.3-1.4-1.8-2.2c-0.1-0.2-0.4-0.3-0.4-0.4
			c0.1-0.2,0.3-0.4,0.5-0.5c0.8-0.7,1.5-1.5,2.3-2.2c1-0.9,2-1.9,2.9-2.8c1.1-1,2.2-2.1,3.3-3.1c1-1,2.1-2,3.1-2.9
			c1-0.9,2-1.9,3-2.8c1-1,2.1-2,3.1-3c0.8-0.7,1.5-1.5,2.3-2.2c1.1-0.9,2.3-1.7,3.6-2.2c1.5-0.7,3.1-1,4.8-1.2c0.2,0,0.4,0,0.5,0
			c0.2,0,0.4,0,0.7,0c0.2,0.1,0.4,0,0.5,0c3.6,0.3,6.7,1.8,9.4,4c2.6,2,4.1,4.7,4.7,7.9c0.8,3.8,0.1,7.4-2,10.7
			c-0.7,1-1.5,1.9-2.4,2.8c-1.9,2.1-3.9,4.3-5.8,6.4c-1,1.1-2,2.2-3,3.3c-0.4,0.4-0.7,0.8-1.1,1.2c-0.1,0.1-0.2,0.2-0.3,0
			c0,0,0,0-0.1-0.1c-2.1-2-4.2-4-6.2-6.1c-0.6-0.6-1.2-1.3-1.8-1.8c-0.9-0.7-1.6-1.6-2.5-2.3c-0.2-0.2-0.3-0.4,0-0.6
			c0.6-0.6,1.1-1.2,1.7-1.7c0.8-0.7,1.6-1.5,2.3-2.2c0.2-0.3,0.4-0.2,0.6,0c1.7,1.7,3.3,3.5,5,5.2c0.5,0.5,0.6,0.5,1.1,0.1
			c0.8-0.7,1.6-1.4,2.3-2.1c0.7-0.7,1.5-1.4,2.2-2.2c0.8-1,1.6-2,2.2-3.2c0.6-1.2,1-2.5,1-3.8c0-1.8-0.6-3.5-1.7-4.9
			c-1-1.3-2.1-2.3-3.6-3c-1-0.5-2-0.8-3.2-0.8c-0.2,0-0.4,0-0.6,0c-1.2,0-2.3,0.4-3.3,1c-1.5,0.9-2.7,2.1-3.8,3.4
			c-0.9,1.1-2.1,2-3.1,3c-1.9,1.9-3.8,3.7-5.7,5.5C85.8,42.2,84.7,43.3,83.5,44.3z"/>
		<path class="st13" d="M124.9,34.6c0.1,0.7,0.1,1.4,0,2.1C124.9,36,124.9,35.3,124.9,34.6z"/>
		<path class="st25" d="M102.2,7.2c-0.2,0.1-0.4,0-0.5,0.1C101.8,7.1,102,7.2,102.2,7.2z"/>
		<path class="st25" d="M104.7,7.3c-0.2,0-0.4,0-0.5,0C104.3,7.2,104.5,7.1,104.7,7.3z"/>
		<path class="st13" d="M103,21.4c-0.2,0.1-0.4,0-0.5,0C102.6,21.3,102.8,21.4,103,21.4z"/>
		<path class="st13" d="M102.8,28.1c0.2-0.1,0.4-0.1,0.6,0C103.2,28.1,103,28.1,102.8,28.1z"/>
		<path class="st13" d="M104.2,21.5c-0.2,0-0.4,0-0.5,0C103.8,21.4,104,21.3,104.2,21.5z"/>
		<path class="st13" d="M102,14c0.1-0.1,0.3,0,0.5-0.1C102.3,14.1,102.1,14,102,14z"/>
		<path class="st13" d="M104.1,13.9c0.1,0,0.3,0,0.4,0C104.4,14,104.2,14,104.1,13.9z"/>
	</g>
	<g>
		<path class="st23" d="M82.6,97.2c-0.7-3.7-2.4-6.9-5.3-9.4C75.1,86,72.6,85,69.7,85c-4.8,0-9.5,0-14.3,0c-0.4,0-0.5,0.1-0.5,0.4
			c0,10.1,0,20.2,0,30.3c0.1,0.1,0.3,0,0.4,0c4,0,7.9,0,11.9,0c0.8,0,1.6,0,2.4,0c0.9,0,1.8-0.1,2.6-0.3c3.1-0.8,5.5-2.5,7.4-5
			c2-2.7,3-5.7,3.3-9C83,100.1,82.9,98.6,82.6,97.2z M74.1,105.9c-1,1.7-2.4,3-4.5,3.5c-0.4,0.1-0.9,0.1-1.3,0.1c-1.9,0-3.8,0-5.7,0
			c-0.3,0-0.4-0.1-0.4-0.4c0-2.9,0-5.9,0-8.8c0-2.9,0-5.8,0-8.8c0-0.3,0.1-0.4,0.4-0.4c1.9,0,3.8,0,5.7,0c1.7,0,3.1,0.6,4.3,1.8
			c1.5,1.5,2.4,3.4,2.7,5.5C75.8,101.1,75.4,103.6,74.1,105.9z"/>
		<path class="st24" d="M26.1,98.7c-0.7-3.6-2.4-6.7-5.4-8.9c-2-1.5-4.2-2.3-6.8-2.3c-4.5,0-9,0-13.4,0c-0.4,0-0.5,0.1-0.5,0.5
			c0,4.7,0,9.3,0,14c0,4.7,0,9.4,0,14.1c0,0.3,0.1,0.4,0.4,0.4c4.6,0,9.2,0,13.8,0c1.2,0,2.4-0.2,3.5-0.7c2.1-0.8,3.8-2,5.2-3.7
			c2-2.4,3.1-5.2,3.4-8.3C26.5,102,26.4,100.3,26.1,98.7z M19.5,102.7c-0.2,2.2-0.9,4.1-2.4,5.8c-1.2,1.3-2.7,2.1-4.6,2.1
			c-1.7,0-3.5,0-5.2,0c-0.3,0-0.4-0.1-0.4-0.4c0-2.8,0-5.5,0-8.3c0-2.8,0-5.5,0-8.3c0-0.3,0.1-0.4,0.4-0.4c1.8,0,3.5,0,5.3,0
			c2.1,0,3.8,0.9,5,2.6C19.1,97.9,19.7,100.2,19.5,102.7z"/>
		<path class="st23" d="M107,108.6c-0.4-0.1-0.9,0-1.3,0h-0.1C106.2,108.6,106.6,108.5,107,108.6C107.1,108.6,107.1,108.6,107,108.6
			z"/>
		<path class="st23" d="M109.7,102.5c-0.5-2.7-1.8-5-3.9-6.7c-2.1-1.7-4.5-2.5-7.2-2.7c-2.7-0.2-5.3,0.3-7.7,1.7
			c-1.4,0.8-2.6,1.9-3.6,3.2c-0.7,0.9-1.2,1.9-1.6,2.9c-0.6,1.5-0.8,3.1-0.7,4.6c0.1,1.3,0.4,2.5,0.9,3.7c0.7,1.7,1.8,3.2,3.3,4.3
			c0.8,0.7,1.8,1.2,2.8,1.6c1.3,0.6,2.7,0.9,4.2,1c1.2,0.1,2.5,0.1,3.7-0.1c1.3-0.2,2.5-0.6,3.7-1.2c1.7-0.9,3.1-2,4.2-3.6
			c0.6-0.8,1.1-1.7,1.4-2.7h-2c0,0-0.1,0-0.1,0c0,0,0.1,0,0.1,0c-0.5,0-1,0.1-1.4-0.1h0.1c0,0,0,0-0.1,0c-1.1,0-2.2,0-3.3,0
			c-0.2,0-0.3,0-0.5,0.2c-0.3,0.5-0.8,0.8-1.3,1.1c-1.3,0.7-2.7,0.9-4.2,0.7c-2.1-0.3-3.9-1.8-4.4-4c-0.1-0.4,0-0.4,0.3-0.4
			c4.5,0,9,0,13.6,0c1.2,0,2.4,0,3.5,0c0.3,0,0.3-0.1,0.4-0.3C109.9,104.7,109.9,103.6,109.7,102.5z M92.2,102.2
			c0.6-2.4,2.5-4.2,5.3-4.2c2.8,0,4.7,1.6,5.3,4.2H92.2z"/>
		<path class="st24" d="M52.3,105c-0.1-0.1,0-0.3-0.1-0.4c-0.1-0.4-0.1-0.7-0.2-1.1c-0.7-2.7-2.3-4.9-4.6-6.4
			c-1.7-1.1-3.6-1.8-5.5-2.1c-0.2-0.1-0.3,0-0.5-0.1c-0.3,0-0.5,0-0.8,0c-0.2,0-0.3,0-0.5,0c-0.3,0-0.6,0-0.9,0
			c-0.1,0.1-0.3,0-0.4,0.1c-1.5,0.2-2.9,0.6-4.3,1.2c-1.6,0.8-3,1.9-4,3.3c-1.2,1.6-2,3.4-2.1,5.5c-0.1,1.4,0,2.8,0.5,4.1
			c0.8,2.2,2.2,4,4.1,5.4c1.9,1.3,4,2,6.3,2.2c2.7,0.2,5.2-0.3,7.5-1.7c1.8-1.1,3.2-2.5,4.2-4.3c0.6-1.1,1-2.3,1.2-3.6
			c0.1-0.1,0-0.3,0.1-0.4L52.3,105L52.3,105z M41.6,111.4c-0.4,0.1-0.8,0.1-1.4,0.2c-2.5,0-4.8-1.9-5.3-4.6c-0.6-2.9,1.2-5.8,4-6.6
			c2.9-0.8,6,1,6.8,4C46.5,107.5,44.7,110.7,41.6,111.4z"/>
		<path class="st23" d="M148.7,108.5c0.4-1,0.8-2.1,1.1-3.1c0.9-2.4,1.7-4.7,2.6-7.1c0.6-1.6,1.2-3.2,1.7-4.8
			c0.1-0.2,0.1-0.2,0.3-0.2c2.3,0,4.6,0,7,0c-0.4,1-0.7,1.9-1.1,2.8c-1.4,3.5-2.7,7-4.1,10.6c-1.1,2.9-2.2,5.8-3.4,8.8
			c-0.1,0.2-0.2,0.2-0.3,0.2c-2.6,0-5.1,0-7.7,0c-0.2,0-0.3-0.1-0.3-0.3c-1-2.6-2-5.2-3-7.8c-1-2.7-2.1-5.4-3.1-8
			c-0.8-1.9-1.5-3.9-2.2-5.8c-0.1-0.1-0.1-0.3-0.2-0.4c0.2,0,0.3,0,0.5,0c2.1,0,4.2,0,6.3,0c0.2,0,0.3,0,0.4,0.3
			c1.8,4.9,3.5,9.7,5.3,14.6C148.6,108.4,148.6,108.5,148.7,108.5z"/>
		<path class="st23" d="M184.3,107.9c0,0.9,0,1.8,0,2.6c0,0.2-0.1,0.3-0.3,0.4c-1.4,0.7-2.9,1.5-4.3,2.2c-2,1-4,2.1-6,3.2
			c-0.3,0.1-0.5,0.1-0.7,0c-1.1-0.6-2.3-1.2-3.4-1.8c-1.4-0.7-2.9-1.5-4.3-2.3c-0.9-0.5-1.8-0.9-2.7-1.4c-0.2-0.1-0.3-0.2-0.3-0.4
			c0-4,0-8.1,0-12.1c0-0.2,0.1-0.3,0.3-0.2c3.2,1.7,6.3,3.3,9.5,5c0.2,0.1,0.4,0.2,0.6,0.3c0.5,0.4,0.9,0.2,1.4-0.1
			c1-0.6,2.1-1.1,3.1-1.7c1.2-0.6,2.4-1.2,3.5-1.8c0.2-0.1,0.4-0.2,0.6-0.3c0.1-0.1,0.2-0.2,0-0.3c-1-0.5-2.1-1-3.1-1.6
			c-1.2-0.6-2.5-1.3-3.7-1.9c-0.1-0.1-0.2-0.1-0.3-0.2c-0.6-0.3-1-0.5-1.7-0.1c-1.8,1-3.6,1.9-5.4,2.9c-0.2,0.1-0.4,0.1-0.6,0
			c-0.8-0.3-1.5-0.8-2.2-1.1c-0.1,0-0.2-0.1-0.2-0.2c0-0.1,0.1-0.1,0.2-0.1c1.1-0.5,2.1-1.1,3.2-1.6c1.6-0.8,3.1-1.7,4.7-2.5
			c0.3-0.1,0.6-0.2,0.8-0.4c0.2-0.1,0.4-0.1,0.5,0c3,1.5,5.9,3.1,8.9,4.7c0.6,0.3,1.1,0.6,1.7,0.9c0.2,0.1,0.2,0.2,0.2,0.3
			c0,0.8,0,1.5,0,2.3c0,0.2-0.1,0.3-0.2,0.4c-2,1-3.9,2-5.8,3c-1.5,0.8-3.1,1.6-4.6,2.4c-0.3,0.1-0.4,0.1-0.7,0
			c-1-0.5-1.9-1-2.9-1.5c-1-0.5-2-1-3-1.5c-0.7-0.4-1.4-0.7-2.1-1.1c0,0.6,0,1.2,0,1.8c0,0.2,0.1,0.3,0.2,0.4c2,1,3.9,2,5.9,3.1
			c0.7,0.3,1.3,0.7,2,1c0.2,0.1,0.3,0.1,0.5,0c1.4-0.7,2.8-1.5,4.2-2.2c1.4-0.7,2.7-1.4,4.1-2.1c0.7-0.4,1.5-0.7,2.2-1.2
			c0.2-0.2,0.4-0.1,0.4,0.2c0,0.7,0,1.4,0,2c0,0.4-0.1,0.6-0.4,0.7c-1,0.5-2,1-3.1,1.6c-2.4,1.3-4.8,2.5-7.2,3.8
			c-0.2,0.1-0.4,0.1-0.6,0c-1-0.5-2-1-2.9-1.5c-1.2-0.6-2.5-1.3-3.7-1.9c-0.4-0.2-0.9-0.5-1.4-0.7c0,0.6,0,1.3,0,1.9
			c0,0.2,0.1,0.2,0.2,0.3c1.1,0.6,2.2,1.2,3.4,1.7c1.5,0.8,3,1.6,4.5,2.4c0.2,0.1,0.4,0.1,0.6,0c0.2-0.2,0.5-0.3,0.8-0.4
			c1.5-0.7,2.9-1.5,4.4-2.2c1.2-0.6,2.4-1.3,3.6-1.9C183,108.5,183.6,108.2,184.3,107.9z"/>
		<path class="st23" d="M195.3,93.5c0,0.9,0,1.7,0,2.7c1.2-1.5,2.8-2.2,4.6-2.5c1.6-0.3,3.1-0.3,4.7,0.2c1,0.3,1,0.3,0.5,1.2
			c-0.9,1.7-1.8,3.3-2.7,5c-0.2,0.3-0.3,0.4-0.7,0.2c-1.4-0.6-2.7-0.4-4,0.3c-1.3,0.7-2.1,1.8-2.4,3.3c-0.1,0.3-0.1,0.6-0.1,1
			c0,3.5,0,7,0,10.5c0,0.3-0.1,0.4-0.4,0.4c-2,0-4,0-6,0c-0.3,0-0.4-0.1-0.4-0.4c0-7.3,0-14.6,0-22c0.1-0.1,0.2,0,0.3,0
			c2.1,0,4.2,0,6.2,0C195.1,93.4,195.3,93.4,195.3,93.5z"/>
		<path class="st23" d="M113.7,100.3c0-5,0-10,0-15c0-0.3,0.1-0.4,0.4-0.4c2,0,4,0,6.1,0c0.3,0,0.4,0.1,0.4,0.4c0,10,0,20.1,0,30.1
			c0,0.3-0.1,0.4-0.4,0.4c-2,0-4.1,0-6.1,0c-0.3,0-0.4-0.1-0.4-0.4C113.7,110.4,113.7,105.4,113.7,100.3z"/>
		<path class="st23" d="M126,104.6c0-3.6,0-7.2,0-10.8c0-0.3,0.1-0.4,0.4-0.4c2,0,4,0,6.1,0c0.3,0,0.3,0.1,0.3,0.3
			c0,7.2,0,14.4,0,21.7c0,0.3-0.1,0.3-0.4,0.3c-2,0-4,0-6,0c-0.3,0-0.4-0.1-0.4-0.4C126,111.8,126,108.2,126,104.6z"/>
		<path class="st23" d="M107.1,108.6c-0.5,0-1,0.1-1.4-0.1h0.1C106.2,108.5,106.6,108.4,107.1,108.6
			C107.1,108.6,107.1,108.6,107.1,108.6z"/>
		<circle class="st23" cx="129.4" cy="87.5" r="3.4"/>
	</g>
</g>
</svg>
