<svg width="75" height="18" viewBox="0 0 75 18" fill="none" xmlns="http://www.w3.org/2000/svg">
<path d="M47.2951 17.3918C47.28 17.1262 47.255 16.9057 47.255 16.6851C47.255 11.6932 47.27 6.70622 47.2399 1.71425C47.2349 0.9825 47.4755 0.797056 48.1521 0.797056C51.1343 0.797056 54.1164 0.751948 57.0936 0.716863C57.6349 0.711851 58.0108 0.852188 57.9757 1.53883C57.9406 2.21545 57.9707 2.89208 57.9707 3.694H50.6732V7.54823C50.8586 7.56327 51.0691 7.59835 51.2746 7.60337C52.7281 7.6184 54.1766 7.62843 55.6301 7.62341C56.2114 7.62341 56.452 7.82891 56.462 8.48047C56.462 10.4101 56.4971 10.4101 54.6126 10.4101C53.4949 10.4101 52.3823 10.4301 51.2646 10.4251C50.8135 10.4201 50.613 10.5705 50.6281 11.0667C50.6631 12.1493 50.6431 13.2319 50.6431 14.4748H57.9256V17.3918C54.4021 17.3918 50.8987 17.3918 47.2901 17.3918H47.2951Z" fill="black"/>
<path d="M6.57746 0.827108C4.78817 0.847156 3.0039 0.88224 1.22463 0.842144C0.527962 0.827108 0.287386 1.02759 0.29741 1.73929C0.32247 4.21523 0.302422 6.69617 0.302422 9.18213H0.267338C0.267338 11.1418 0.287386 13.1065 0.267338 15.0712C0.242278 17.5772 0.232254 17.5622 2.67811 17.4519C3.2144 17.4319 3.41488 17.2515 3.39984 16.6901C3.36476 15.5474 3.41989 14.4097 3.41488 13.2669C3.41488 12.7757 3.56023 12.5402 4.0915 12.5753C4.81323 12.6154 5.54499 12.6154 6.26671 12.5903C9.53455 12.48 11.384 10.8812 11.8401 7.74368C11.9153 7.2074 11.9153 6.66109 11.9052 6.11979C11.8651 2.75673 9.86534 0.787012 6.57746 0.827108ZM8.21137 8.63582C7.99085 9.04681 7.45957 9.47784 7.01852 9.53798C5.98103 9.69336 4.90846 9.6683 3.85093 9.64825C3.69555 9.64825 3.43493 9.27235 3.41989 9.05182C3.36476 8.28498 3.39984 7.51313 3.39984 6.74629H3.40486C3.40486 5.94437 3.4249 5.15247 3.39984 4.35055C3.38481 3.79422 3.54018 3.50352 4.15666 3.53359C4.95858 3.58371 5.78055 3.54863 6.58247 3.56868C7.53475 3.59374 8.13619 4.0799 8.45195 4.9971C8.888 6.2501 8.81282 7.48807 8.21137 8.63081V8.63582Z" fill="black"/>
<path d="M24.2198 9.13706C23.879 6.73631 22.4255 5.20764 20.5009 4.97709C19.6488 4.87685 18.7717 4.86683 17.9197 4.95704C15.8297 5.1876 14.2409 6.55086 13.8149 8.64087C13.5593 9.85378 13.454 11.1419 13.5542 12.3648C13.8399 16.0536 15.539 17.5973 19.1226 17.6274C21.9093 17.6525 23.7336 16.2591 24.1897 13.4674C24.4153 12.0591 24.4253 10.5605 24.2248 9.14207L24.2198 9.13706ZM20.9369 13.5677C20.6713 14.5951 20.0247 14.9761 18.9271 14.9911C17.8495 14.9961 17.3132 14.6553 16.9574 13.6378C16.4361 12.1192 16.4863 10.5655 16.8973 9.03181C17.1629 8.02439 18.055 7.46305 19.0624 7.53823C20.1551 7.61842 20.972 8.35519 21.1073 9.42776C21.1725 9.9891 21.1825 10.5555 21.2076 11.1268C21.2276 11.1318 21.2477 11.1318 21.2677 11.1419C21.1675 11.9488 21.1424 12.7858 20.9369 13.5727V13.5677Z" fill="black"/>
<path d="M35.537 8.04446C33.6926 7.97429 32.0386 7.91916 30.3796 7.85901C29.9235 7.84398 29.4374 7.93921 29.4875 8.4805C29.5276 8.84137 29.8383 9.37264 30.1441 9.47789C30.9761 9.77861 31.8732 9.90391 32.7453 10.0894C35.547 10.6858 36.6497 12.856 35.4969 15.5374C34.8353 17.0861 33.4921 17.5823 32.0186 17.5923C30.4097 17.5974 28.7958 17.4069 27.187 17.2164C26.9264 17.1914 26.5655 16.7553 26.5104 16.4646C26.4051 15.8883 26.4753 15.2818 26.4753 14.525C27.4626 14.6152 28.3849 14.7355 29.3071 14.7656C30.1892 14.8006 31.0913 14.7906 31.9584 14.6753C32.2341 14.6403 32.6701 14.1842 32.6601 13.9336C32.6451 13.6128 32.3193 13.1166 32.0236 13.0214C31.1515 12.7407 30.2293 12.6405 29.3321 12.435C26.5605 11.8135 25.4278 9.25235 26.8261 6.77141C27.5078 5.5585 28.6956 5.02723 29.9085 5.01219C31.6427 4.98713 33.3919 5.29286 35.126 5.48332C35.2814 5.50337 35.5019 5.7239 35.5069 5.85922C35.547 6.61102 35.527 7.36282 35.527 8.03443L35.537 8.04446Z" fill="black"/>
<path d="M69.8741 17.3818L69.9142 17.4519H66.8669L66.6815 17.1111H66.6765L64.6416 13.4774L63.2282 16.4144L63.1631 16.5498L62.727 17.4519H62.0354C61.7998 17.5071 61.5392 17.5071 61.2384 17.467C61.1833 17.4619 61.1382 17.4519 61.0831 17.4519H59.4091C59.5745 17.056 59.6747 16.7553 59.8251 16.4796C60.657 14.9309 61.5291 13.4072 62.326 11.8435C62.4714 11.5578 62.4664 11.0566 62.321 10.7609C61.5442 9.18712 60.6971 7.64843 59.8902 6.08969C59.7499 5.82406 59.6446 5.54339 59.4692 5.1324C60.5017 5.1324 61.4139 5.10734 62.316 5.15245C62.4914 5.15746 62.707 5.41809 62.8122 5.61857C63.4086 6.72121 63.985 7.8439 64.6416 9.0969C65.2831 7.85893 65.8194 6.77133 66.4158 5.72883C66.5712 5.46319 66.9271 5.18252 67.2128 5.15245C68.0347 5.07727 68.8767 5.12739 69.824 5.12739C69.7037 5.41307 69.6386 5.61857 69.5383 5.80401C68.6662 7.35773 67.8042 8.91647 66.912 10.4652C66.6113 10.9914 66.6314 11.4576 66.9271 11.9788C67.9345 13.743 68.9018 15.5273 69.9293 17.3717C69.9142 17.3717 69.9042 17.3767 69.8892 17.3767L69.8741 17.3818Z" fill="black"/>
<path d="M38.7596 7.92411C38.2233 7.89905 37.8424 7.86898 37.3663 7.84392V5.15247H38.7396V1.75934H41.8871V5.12741C42.689 5.12741 43.4358 5.15247 44.1726 5.1224C44.7289 5.09734 44.9244 5.31285 44.8943 5.86418C44.8693 6.51574 44.8893 7.1673 44.8893 7.879H41.9974C41.9773 8.26994 41.9523 8.59572 41.9523 8.92651C41.9523 10.3499 41.9272 11.7733 41.9773 13.1967C42.0325 14.6252 42.3081 14.8457 43.7065 14.8307C44.4516 14.8206 44.8442 15.1815 44.8843 15.9133C44.9695 17.4971 44.8893 17.5823 43.3155 17.6224C42.8644 17.6374 42.4234 17.6274 41.9773 17.6173C40.0026 17.5572 38.9952 16.6099 38.8899 14.5801C38.7947 12.7306 38.7947 10.8762 38.7646 9.02675C38.7596 8.69095 38.7646 8.35514 38.7646 7.92912L38.7596 7.92411Z" fill="black"/>
<path d="M72.9668 17.3867C73.955 17.3867 74.7561 16.5677 74.7561 15.5574C74.7561 14.547 73.955 13.728 72.9668 13.728C71.9786 13.728 71.1775 14.547 71.1775 15.5574C71.1775 16.5677 71.9786 17.3867 72.9668 17.3867Z" fill="#92CF53"/>
</svg>
