<?xml version="1.0" encoding="utf-8"?>
<!-- Generator: Adobe Illustrator 24.3.0, SVG Export Plug-In . SVG Version: 6.00 Build 0)  -->
<svg version="1.1" id="Layer_1" xmlns="http://www.w3.org/2000/svg" xmlns:xlink="http://www.w3.org/1999/xlink" x="0px" y="0px"
	 viewBox="0 0 1080 407.34" style="enable-background:new 0 0 1080 407.34;" xml:space="preserve">
<style type="text/css">
	.st0{fill:#92CF53;}
</style>
<g>
	<path d="M676.89,235.39c-0.19-3.73-0.57-6.78-0.57-9.84c0-69.64,0.19-139.28-0.19-208.91c-0.1-10.22,3.34-12.8,12.99-12.8
		c42.51,0,85.02-0.67,127.53-1.15c7.74-0.1,13.09,1.91,12.61,11.46c-0.48,9.46-0.1,18.91-0.1,30.09c-35.34,0-69.35,0-104.03,0
		c0,18.72,0,35.63,0,53.78c2.67,0.19,5.64,0.67,8.6,0.76c20.73,0.19,41.36,0.38,62.09,0.29c8.31,0,11.75,2.87,11.85,11.94
		c0,26.94,0.48,26.94-26.36,26.94c-15.95,0-31.81,0.29-47.76,0.19c-6.4-0.1-9.27,2.01-9.07,8.98c0.48,15.09,0.19,30.19,0.19,47.57
		c34.58,0,68.87,0,103.84,0c0,14.81,0,27.42,0,40.69C778.25,235.39,728.29,235.39,676.89,235.39z"/>
	<path d="M96.39,4.22C70.88,4.5,45.47,4.98,20.06,4.41C10.13,4.22,6.69,6.99,6.88,16.92c0.38,34.58,0.1,69.16,0.1,103.84H6.5
		c0,27.42,0.19,54.83,0,82.25c-0.38,34.96-0.48,34.77,34.39,33.24c7.64-0.29,10.51-2.77,10.32-10.6
		c-0.48-15.95,0.29-31.81,0.19-47.76c0-6.88,2.1-10.13,9.65-9.65c10.32,0.57,20.73,0.57,31.05,0.19
		c46.62-1.53,72.98-23.88,79.48-67.63c1.05-7.45,1.05-15.09,0.96-22.64C171.76,31.16,143.29,3.64,96.39,4.22z M123.13,62.49
		c6.21,17.48,5.16,34.77-3.44,50.72c-3.15,5.73-10.7,11.75-17,12.61c-14.81,2.2-30.09,1.81-45.18,1.53c-2.2,0-5.92-5.25-6.11-8.31
		c-0.76-10.7-0.29-21.49-0.29-32.19h0.1c0-11.18,0.29-22.26-0.1-33.43c-0.19-7.74,2.01-11.85,10.79-11.37
		c11.46,0.67,23.12,0.19,34.58,0.48C110.05,42.91,118.64,49.69,123.13,62.49"/>
	<path d="M347.9,120.19c-4.87-33.53-25.6-54.83-53.02-58.08c-12.13-1.43-24.65-1.53-36.78-0.29c-29.8,3.25-52.44,22.26-58.56,51.39
		c-3.63,16.91-5.16,34.87-3.73,51.97c4.11,51.49,28.28,72.98,79.38,73.46c39.74,0.38,65.72-19.11,72.22-58.08
		C350.67,160.88,350.77,139.96,347.9,120.19z M301.1,181.99c-3.82,14.33-12.99,19.68-28.66,19.87c-15.38,0.1-23.02-4.68-28.08-18.91
		c-7.45-21.21-6.69-42.89-0.86-64.29c3.82-14.04,16.53-21.88,30.85-20.82c15.57,1.15,27.22,11.37,29.14,26.36
		c0.96,7.83,1.05,15.76,1.43,23.69c0.29,0.1,0.57,0.1,0.86,0.19C304.34,159.35,303.96,171.01,301.1,181.99z"/>
	<path d="M509.25,104.9c-26.27-0.96-49.86-1.72-73.55-2.58c-6.5-0.19-13.47,1.15-12.7,8.69c0.57,5.06,4.97,12.42,9.36,13.95
		c11.85,4.2,24.65,5.92,37.06,8.5c39.93,8.31,55.69,38.59,39.26,76.04c-9.46,21.59-28.56,28.56-49.58,28.66
		c-22.93,0.1-45.95-2.58-68.87-5.25c-3.73-0.38-8.88-6.4-9.65-10.51c-1.53-8.02-0.48-16.53-0.48-27.03
		c14.04,1.24,27.22,2.96,40.41,3.34c12.61,0.48,25.41,0.38,37.83-1.24c3.92-0.48,10.13-6.88,10.03-10.32
		c-0.19-4.49-4.87-11.37-9.07-12.7c-12.42-3.92-25.6-5.35-38.4-8.22c-39.55-8.69-55.69-44.42-35.73-79
		c9.74-16.91,26.65-24.36,43.94-24.55c24.74-0.38,49.67,3.92,74.41,6.59c2.2,0.29,5.35,3.34,5.44,5.25
		C509.53,85.03,509.25,95.54,509.25,104.9z"/>
	<path d="M998.81,235.2l0.57,0.96h-43.46l-2.67-4.78l-0.1-0.1l-29.04-50.63l-20.16,40.98l-0.96,1.91l-6.21,12.61h-9.84
		c-3.34,0.76-7.07,0.76-11.37,0.19c-0.76-0.1-1.43-0.19-2.2-0.19h-23.88c2.39-5.54,3.82-9.74,5.92-13.56
		c11.85-21.59,24.26-42.89,35.63-64.67c2.1-4.01,2.01-10.99-0.1-15.09c-11.08-21.97-23.12-43.46-34.68-65.15
		c-2.01-3.73-3.53-7.64-6.02-13.37c14.71,0,27.7-0.38,40.6,0.29c2.48,0.1,5.54,3.73,7.07,6.5c8.5,15.38,16.72,31.05,26.08,48.53
		c9.17-17.29,16.81-32.48,25.31-47c2.2-3.73,7.26-7.64,11.37-8.02c11.75-1.05,23.69-0.38,37.25-0.38c-1.72,4.01-2.67,6.88-4.11,9.46
		c-12.42,21.68-24.74,43.46-37.45,65.05c-4.3,7.36-4.01,13.85,0.19,21.11c14.33,24.65,28.18,49.48,42.8,75.27
		C999.2,235.1,999,235.2,998.81,235.2z"/>
	<path d="M555.19,103.28c-7.64-0.38-13.09-0.76-19.87-1.15c0-12.23,0-24.36,0-37.54c5.35,0,11.56,0,19.58,0c0-16.24,0-31.43,0-47.38
		c15.76,0,29.8,0,44.9,0c0,15.19,0,30.19,0,47c11.46,0,22.07,0.38,32.57-0.1c7.93-0.38,10.7,2.67,10.32,10.32
		c-0.38,9.07-0.1,18.15-0.1,28.08c-13.95,0-26.84,0-41.27,0c-0.29,5.44-0.67,10.03-0.67,14.62c0,19.87-0.38,39.74,0.38,59.61
		c0.76,19.96,4.68,23.02,24.65,22.83c15.95-0.19,15.95-0.19,16.81,15.09c1.24,22.07,0.1,23.31-22.35,23.88
		c-6.4,0.19-12.7,0.1-19.11-0.1c-28.18-0.86-42.51-14.04-44.04-42.41c-1.34-25.79-1.34-51.68-1.82-77.47
		C555.1,113.88,555.19,109.2,555.19,103.28z"/>
	<circle class="st0" cx="1042.95" cy="209.79" r="25.51"/>
</g>
<g>
	<path d="M84.03,305.21c0,6.31-1.04,12.01-3.12,17.08c-2.08,5.08-5.06,9.4-8.93,12.98c-3.87,3.58-8.62,6.34-14.25,8.3
		c-5.63,1.95-12.35,2.93-20.16,2.93H23.21v45.49c0,0.52-0.15,0.98-0.44,1.37s-0.75,0.7-1.37,0.93s-1.46,0.42-2.54,0.59
		c-1.07,0.16-2.42,0.24-4.05,0.24s-2.98-0.08-4.05-0.24s-1.94-0.36-2.59-0.59s-1.11-0.54-1.37-0.93c-0.26-0.39-0.39-0.85-0.39-1.37
		V275.44c0-2.6,0.68-4.46,2.05-5.56s2.9-1.66,4.59-1.66H40.1c2.73,0,5.35,0.11,7.86,0.34s5.47,0.72,8.88,1.46s6.9,2.15,10.44,4.2
		c3.55,2.05,6.56,4.57,9.03,7.56c2.47,2.99,4.38,6.46,5.71,10.4C83.36,296.11,84.03,300.46,84.03,305.21z M66.36,306.57
		c0-5.14-0.96-9.44-2.88-12.88c-1.92-3.45-4.29-6.02-7.13-7.71s-5.76-2.77-8.79-3.22c-3.03-0.46-5.97-0.68-8.83-0.68H23.21v50.66
		h15.13c5.08,0,9.29-0.65,12.64-1.95c3.35-1.3,6.17-3.11,8.44-5.42c2.28-2.31,4-5.08,5.17-8.3S66.36,310.35,66.36,306.57z"/>
	<path d="M169.73,392.18c0,0.78-0.26,1.37-0.78,1.76c-0.52,0.39-1.24,0.68-2.15,0.88s-2.25,0.29-4,0.29c-1.69,0-3.04-0.1-4.05-0.29
		s-1.74-0.49-2.2-0.88c-0.46-0.39-0.68-0.98-0.68-1.76v-8.79c-3.84,4.1-8.12,7.29-12.84,9.57c-4.72,2.28-9.71,3.42-14.98,3.42
		c-4.62,0-8.8-0.6-12.54-1.81c-3.74-1.2-6.93-2.94-9.57-5.22c-2.64-2.28-4.69-5.08-6.15-8.39c-1.46-3.32-2.2-7.09-2.2-11.32
		c0-4.95,1.01-9.24,3.03-12.88s4.91-6.67,8.69-9.08c3.77-2.41,8.39-4.21,13.86-5.42c5.47-1.2,11.62-1.81,18.45-1.81h12.1v-6.83
		c0-3.38-0.36-6.38-1.07-8.98c-0.72-2.6-1.87-4.77-3.47-6.49c-1.59-1.72-3.66-3.03-6.2-3.9c-2.54-0.88-5.66-1.32-9.37-1.32
		c-3.97,0-7.53,0.47-10.69,1.42s-5.92,1.98-8.3,3.12c-2.38,1.14-4.36,2.18-5.95,3.12c-1.59,0.94-2.78,1.42-3.56,1.42
		c-0.52,0-0.98-0.13-1.37-0.39c-0.39-0.26-0.73-0.65-1.02-1.17c-0.29-0.52-0.5-1.19-0.63-2c-0.13-0.81-0.2-1.71-0.2-2.68
		c0-1.63,0.11-2.91,0.34-3.86s0.78-1.84,1.66-2.68c0.88-0.85,2.39-1.84,4.54-2.98c2.15-1.14,4.62-2.18,7.42-3.12
		c2.8-0.94,5.86-1.72,9.18-2.34c3.32-0.62,6.67-0.93,10.05-0.93c6.31,0,11.68,0.72,16.11,2.15c4.43,1.43,8,3.53,10.74,6.3
		c2.73,2.77,4.72,6.2,5.95,10.3c1.24,4.1,1.85,8.88,1.85,14.35V392.18z M153.72,352.06h-13.76c-4.43,0-8.26,0.37-11.52,1.12
		c-3.25,0.75-5.95,1.85-8.1,3.32c-2.15,1.46-3.73,3.22-4.73,5.27c-1.01,2.05-1.51,4.41-1.51,7.08c0,4.56,1.45,8.18,4.34,10.88
		c2.9,2.7,6.95,4.05,12.15,4.05c4.23,0,8.15-1.07,11.76-3.22c3.61-2.15,7.4-5.43,11.37-9.86V352.06z"/>
	<path d="M250.65,309.99c0,1.43-0.03,2.64-0.1,3.61c-0.07,0.98-0.2,1.74-0.39,2.29c-0.2,0.55-0.44,0.98-0.73,1.27
		c-0.29,0.29-0.7,0.44-1.22,0.44s-1.16-0.15-1.9-0.44c-0.75-0.29-1.59-0.59-2.54-0.88c-0.94-0.29-2-0.57-3.17-0.83
		c-1.17-0.26-2.44-0.39-3.81-0.39c-1.63,0-3.22,0.33-4.78,0.98c-1.56,0.65-3.2,1.72-4.93,3.22c-1.72,1.5-3.53,3.48-5.42,5.95
		c-1.89,2.47-3.97,5.5-6.25,9.08v57.79c0,0.52-0.13,0.96-0.39,1.32s-0.68,0.67-1.27,0.93c-0.59,0.26-1.4,0.46-2.44,0.59
		c-1.04,0.13-2.38,0.2-4,0.2c-1.56,0-2.86-0.07-3.9-0.2c-1.04-0.13-1.87-0.33-2.49-0.59c-0.62-0.26-1.04-0.57-1.27-0.93
		c-0.23-0.36-0.34-0.8-0.34-1.32v-87.85c0-0.52,0.1-0.96,0.29-1.32s0.59-0.68,1.17-0.98c0.59-0.29,1.33-0.49,2.25-0.59
		c0.91-0.1,2.11-0.15,3.61-0.15c1.43,0,2.62,0.05,3.56,0.15c0.94,0.1,1.68,0.29,2.2,0.59c0.52,0.29,0.89,0.62,1.12,0.98
		c0.23,0.36,0.34,0.8,0.34,1.32v12.79c2.41-3.51,4.67-6.38,6.78-8.59c2.11-2.21,4.12-3.95,6-5.22s3.76-2.15,5.61-2.64
		c1.85-0.49,3.73-0.73,5.61-0.73c0.85,0,1.81,0.05,2.88,0.15c1.07,0.1,2.2,0.28,3.37,0.54c1.17,0.26,2.23,0.55,3.17,0.88
		c0.94,0.33,1.61,0.65,2,0.98s0.65,0.63,0.78,0.93c0.13,0.29,0.24,0.67,0.34,1.12c0.1,0.46,0.16,1.12,0.2,2
		C250.63,307.31,250.65,308.49,250.65,309.99z"/>
	<path d="M314.68,385.64c0,1.89-0.13,3.38-0.39,4.49c-0.26,1.11-0.65,1.92-1.17,2.44c-0.52,0.52-1.3,1.01-2.34,1.46
		c-1.04,0.46-2.23,0.83-3.56,1.12c-1.33,0.29-2.75,0.54-4.25,0.73c-1.5,0.2-2.99,0.29-4.49,0.29c-4.56,0-8.46-0.6-11.71-1.81
		c-3.25-1.2-5.92-3.03-8-5.47c-2.08-2.44-3.6-5.53-4.54-9.27c-0.94-3.74-1.42-8.15-1.42-13.23v-51.34h-12.3
		c-0.98,0-1.76-0.52-2.34-1.56s-0.88-2.73-0.88-5.08c0-1.24,0.08-2.28,0.24-3.12c0.16-0.85,0.37-1.55,0.63-2.1s0.6-0.94,1.02-1.17
		c0.42-0.23,0.89-0.34,1.42-0.34h12.2V280.8c0-0.46,0.11-0.88,0.34-1.27c0.23-0.39,0.65-0.73,1.27-1.02
		c0.62-0.29,1.45-0.5,2.49-0.63c1.04-0.13,2.34-0.2,3.9-0.2c1.63,0,2.96,0.07,4,0.2c1.04,0.13,1.85,0.34,2.44,0.63
		c0.59,0.29,1.01,0.63,1.27,1.02c0.26,0.39,0.39,0.81,0.39,1.27v20.89h22.55c0.52,0,0.98,0.11,1.37,0.34
		c0.39,0.23,0.73,0.62,1.02,1.17s0.5,1.25,0.63,2.1c0.13,0.85,0.2,1.89,0.2,3.12c0,2.34-0.29,4.03-0.88,5.08s-1.37,1.56-2.34,1.56
		h-22.55v49c0,6.05,0.89,10.62,2.68,13.71s4.99,4.64,9.61,4.64c1.5,0,2.83-0.15,4-0.44c1.17-0.29,2.21-0.6,3.12-0.93
		s1.69-0.63,2.34-0.93c0.65-0.29,1.24-0.44,1.76-0.44c0.33,0,0.63,0.08,0.93,0.24c0.29,0.16,0.52,0.47,0.68,0.93
		c0.16,0.46,0.31,1.07,0.44,1.85C314.62,383.49,314.68,384.47,314.68,385.64z"/>
	<path d="M411.61,392.08c0,0.52-0.13,0.96-0.39,1.32c-0.26,0.36-0.68,0.67-1.27,0.93c-0.59,0.26-1.4,0.46-2.44,0.59
		c-1.04,0.13-2.34,0.2-3.9,0.2c-1.63,0-2.96-0.07-4-0.2c-1.04-0.13-1.85-0.33-2.44-0.59c-0.59-0.26-1.01-0.57-1.27-0.93
		c-0.26-0.36-0.39-0.8-0.39-1.32v-51.44c0-5.01-0.39-9.05-1.17-12.1c-0.78-3.06-1.92-5.69-3.42-7.91c-1.5-2.21-3.43-3.9-5.81-5.08
		c-2.38-1.17-5.12-1.76-8.25-1.76c-4.03,0-8.07,1.43-12.1,4.29c-4.03,2.86-8.26,7.06-12.69,12.59v61.4c0,0.52-0.13,0.96-0.39,1.32
		c-0.26,0.36-0.68,0.67-1.27,0.93c-0.59,0.26-1.4,0.46-2.44,0.59c-1.04,0.13-2.38,0.2-4,0.2c-1.56,0-2.86-0.07-3.9-0.2
		c-1.04-0.13-1.87-0.33-2.49-0.59c-0.62-0.26-1.04-0.57-1.27-0.93s-0.34-0.8-0.34-1.32v-87.85c0-0.52,0.1-0.96,0.29-1.32
		s0.59-0.68,1.17-0.98c0.59-0.29,1.33-0.49,2.25-0.59c0.91-0.1,2.11-0.15,3.61-0.15c1.43,0,2.62,0.05,3.56,0.15
		c0.94,0.1,1.68,0.29,2.2,0.59c0.52,0.29,0.89,0.62,1.12,0.98c0.23,0.36,0.34,0.8,0.34,1.32v11.62c4.95-5.53,9.88-9.58,14.79-12.15
		c4.91-2.57,9.88-3.86,14.89-3.86c5.86,0,10.79,0.99,14.79,2.98c4,1.98,7.24,4.64,9.71,7.96s4.25,7.21,5.32,11.66
		s1.61,9.81,1.61,16.06V392.08z"/>
	<path d="M515.96,344.35c0,2.54-0.63,4.34-1.91,5.42c-1.28,1.07-2.73,1.61-4.37,1.61h-57.85c0,4.88,0.49,9.27,1.47,13.18
		c0.98,3.9,2.61,7.26,4.9,10.05c2.29,2.8,5.26,4.95,8.92,6.44c3.66,1.5,8.14,2.25,13.44,2.25c4.19,0,7.91-0.34,11.18-1.02
		c3.27-0.68,6.09-1.45,8.48-2.29c2.38-0.85,4.34-1.61,5.88-2.29c1.54-0.68,2.7-1.02,3.48-1.02c0.46,0,0.87,0.11,1.23,0.34
		c0.36,0.23,0.63,0.57,0.84,1.02c0.2,0.46,0.34,1.09,0.44,1.9c0.1,0.81,0.15,1.81,0.15,2.98c0,0.85-0.03,1.58-0.1,2.2
		c-0.07,0.62-0.15,1.17-0.24,1.66c-0.1,0.49-0.26,0.93-0.49,1.32c-0.23,0.39-0.52,0.76-0.88,1.12s-1.42,0.94-3.17,1.76
		c-1.76,0.81-4.03,1.61-6.83,2.39c-2.8,0.78-6.04,1.48-9.71,2.1c-3.68,0.62-7.6,0.93-11.76,0.93c-7.22,0-13.55-1.01-18.99-3.03
		s-10.01-5.01-13.71-8.98s-6.51-8.95-8.39-14.93c-1.89-5.99-2.83-12.95-2.83-20.89c0-7.55,0.98-14.33,2.93-20.35
		s4.77-11.13,8.44-15.33c3.68-4.2,8.12-7.42,13.32-9.66c5.21-2.25,11.03-3.37,17.47-3.37c6.9,0,12.77,1.11,17.62,3.32
		c4.85,2.21,8.83,5.19,11.96,8.93c3.12,3.74,5.42,8.13,6.88,13.18s2.2,10.43,2.2,16.15V344.35z M499.76,339.57
		c0.2-8.46-1.69-15.1-5.65-19.91c-3.96-4.82-9.84-7.22-17.63-7.22c-3.99,0-7.5,0.75-10.51,2.25c-3.02,1.5-5.54,3.48-7.56,5.95
		c-2.03,2.47-3.6,5.35-4.72,8.64s-1.73,6.72-1.86,10.3H499.76z"/>
	<path d="M591.8,309.99c0,1.43-0.03,2.64-0.1,3.61c-0.07,0.98-0.2,1.74-0.39,2.29c-0.2,0.55-0.44,0.98-0.73,1.27
		c-0.29,0.29-0.7,0.44-1.22,0.44s-1.16-0.15-1.9-0.44c-0.75-0.29-1.59-0.59-2.54-0.88c-0.94-0.29-2-0.57-3.17-0.83
		c-1.17-0.26-2.44-0.39-3.81-0.39c-1.63,0-3.22,0.33-4.78,0.98c-1.56,0.65-3.2,1.72-4.93,3.22c-1.72,1.5-3.53,3.48-5.42,5.95
		c-1.89,2.47-3.97,5.5-6.25,9.08v57.79c0,0.52-0.13,0.96-0.39,1.32c-0.26,0.36-0.68,0.67-1.27,0.93c-0.59,0.26-1.4,0.46-2.44,0.59
		c-1.04,0.13-2.38,0.2-4,0.2c-1.56,0-2.86-0.07-3.9-0.2c-1.04-0.13-1.87-0.33-2.49-0.59c-0.62-0.26-1.04-0.57-1.27-0.93
		c-0.23-0.36-0.34-0.8-0.34-1.32v-87.85c0-0.52,0.1-0.96,0.29-1.32c0.2-0.36,0.59-0.68,1.17-0.98c0.59-0.29,1.33-0.49,2.25-0.59
		c0.91-0.1,2.11-0.15,3.61-0.15c1.43,0,2.62,0.05,3.56,0.15c0.94,0.1,1.68,0.29,2.2,0.59c0.52,0.29,0.89,0.62,1.12,0.98
		s0.34,0.8,0.34,1.32v12.79c2.41-3.51,4.67-6.38,6.78-8.59s4.12-3.95,6-5.22s3.76-2.15,5.61-2.64s3.73-0.73,5.61-0.73
		c0.85,0,1.81,0.05,2.88,0.15c1.07,0.1,2.2,0.28,3.37,0.54c1.17,0.26,2.23,0.55,3.17,0.88s1.61,0.65,2,0.98s0.65,0.63,0.78,0.93
		c0.13,0.29,0.24,0.67,0.34,1.12c0.1,0.46,0.16,1.12,0.2,2S591.8,308.49,591.8,309.99z"/>
</g>
</svg>
