<?xml version="1.0" encoding="utf-8"?>
<!-- Generator: Adobe Illustrator 28.3.0, SVG Export Plug-In . SVG Version: 6.00 Build 0)  -->
<svg version="1.1" id="Layer_1" xmlns="http://www.w3.org/2000/svg" xmlns:xlink="http://www.w3.org/1999/xlink" x="0px" y="0px"
	 viewBox="0 0 300 124" style="enable-background:new 0 0 300 124;" xml:space="preserve">
<style type="text/css">
	.st0{fill:#3244DC;}
</style>
<g>
	<path d="M25,61.7c-0.1-6.9-0.1-13.9,0-20.8c0-1.7-0.6-2-2.1-2c-3,0.1-6.1,0.1-9.1,0c-1.6,0-2.2,0.4-2.1,2.1c0.1,2.3,0,4.6,0.1,6.9
		c0.1,1.4-0.5,1.7-1.7,1.7c-3.3-0.1-6.7,0-10-0.1V64c7.6-0.1,15.2-0.2,22.7-0.1C24.4,63.8,25,63.5,25,61.7z"/>
	<path d="M131.2,69.2c0-6.8-3.3-11.6-9.3-14.2c-7.4-3.3-15.1-3.5-22.7-0.6c-6.1,2.3-10.1,6.5-11.5,13.1c2.1,0.2,3.9,0.4,5.7,0.6
		c1.8,0.2,3.6,0.2,5.4,0.4c1.1,0.1,1.7-0.1,2.4-1.1c2.3-3.8,6.6-5.4,11-4.3c3.2,0.8,5.2,3.2,5,6.3c-0.2,3.3-2.8,3.5-5.2,3.9
		c-5,0.9-10.1,0.9-14.9,2.3C91.6,77.1,87.4,80,86.1,86c-2,9.9,3.1,17,13.4,18.6c0.1,0.2,0.1,0.3,0,0.5h6.1c0-0.2,0-0.4,0-0.5
		c4.8-0.6,8.6-2.8,11.7-7.4c0.2-0.2,0.3-0.4,0.5-0.7c0,0.3,0,0.6,0,0.9c0,1.6,0.1,2.7,0,3.8c-0.3,2.1,0.5,2.8,2.6,2.7
		c2.8-0.2,5.7-0.2,8.5,0c1.9,0.1,2.3-0.6,2.3-2.4C131.2,90.7,131.2,80,131.2,69.2z M111.8,93.9c-3.5,1.5-7.1,1.8-10.4-0.4
		c-3.3-2.3-2.8-7.1,0.8-9.3c2.2-1.3,4.8-1.6,7.2-1.9c2.5-0.4,5-0.8,7.8-1.8c0,2.1,0.1,3.9,0,5.7C117,89.9,115.1,92.5,111.8,93.9z"/>
	<path d="M299.2,71.6c-2-10.3-9.4-17.1-20.2-18.8c-10.9-1.7-20.9,2.8-25.8,11.7c-3.3,6-3.7,12.5-3,19c1.3,11.6,9.5,19.6,21.1,21
		c0.1,0.2,0.1,0.3,0.1,0.5h6.7c0-0.2,0-0.3,0.1-0.5c8.6-0.8,15-4.9,18.9-12.6C300.3,85.4,300.6,78.6,299.2,71.6z M266.7,89.1
		c-3.5-7.1-3.7-14.4,0.3-21.3c3.7-6.4,12.5-6.1,16.2,0.3c1.9,3.3,2.5,7,2.4,10.9c0.1,3.2-0.5,6.4-2,9.4c-1.7,3.3-4.2,5.3-8.1,5.5
		C271.6,94,268.4,92.5,266.7,89.1z"/>
	<path d="M188.7,67.9c-0.4-9.1-7.6-15.2-16.7-15.4c-7.1-0.1-12.6,2.8-16.4,9.2c0-2-0.1-4.1,0-6.1c0.1-1.7-0.2-2.6-2.3-2.4
		c-3,0.2-6.1,0.1-9.1,0c-1.4,0-2.2,0.2-2.2,1.9c0.1,15.6,0.1,31.2,0,46.7c0,1.6,0.5,2.1,2.1,2c2.9-0.1,5.9-0.3,8.8,0
		c2.8,0.3,3.3-0.7,3.3-3.3c-0.1-8.9-0.3-17.9,0.1-26.8c0.3-6.4,4.3-9.9,10.1-9.5c5.5,0.3,8.4,3.9,8.4,10.4c0,8.9,0,17.9,0,26.8
		c0,1.1-0.5,2.5,1.6,2.4c3.6-0.1,7.3-0.1,10.9,0c1.2,0,1.6-0.4,1.6-1.5C188.9,90.8,189.2,79.3,188.7,67.9z"/>
	<path d="M240.3,92.5c-5.7,0.1-11.3,0-17,0h-5.2c6.8-8.7,13-17,19.6-25c3-3.6,4.6-7.3,4.1-12c-0.2-1.9-0.6-2.5-2.6-2.5
		c-12,0.1-24.1,0.1-36.1,0c-2.2,0-2.5,0.8-2.4,2.6c0.1,2,0.1,4,0,6c-0.2,2,0.4,2.8,2.6,2.7c7-0.1,14,0,21.6,0
		c-1.1,1.4-1.8,2.4-2.5,3.3c-7,8.7-14.1,17.4-21.2,26c-2.5,3-1.1,6.3-1.3,9.5c0,0.7,0.9,0.6,1.5,0.6c13.1,0,26.3,0,39.5,0
		c1.6,0,1.8-0.7,1.8-2c-0.1-2.3-0.1-4.6,0-6.9C242.8,93,242.2,92.5,240.3,92.5z"/>
	<path d="M82.3,55.1c0.1-1.9-0.6-2.4-2.4-2.6c-6.8-0.6-10.6,1.7-14.9,9c0-2.2-0.1-4.4,0-6.5c0.1-1.5-0.5-1.9-1.9-1.8
		c-3.2,0.1-6.5,0.1-9.7,0c-1.3,0-2,0.1-2,1.7c0,15.7,0,31.4,0,47.1c0,1.4,0.4,1.9,1.9,1.9c3.1-0.1,6.3-0.2,9.4,0
		c2.2,0.1,2.9-0.4,2.9-2.7c-0.2-8.6-0.1-17.3,0-25.9c0-5.6,3.4-9.5,9-10.4c1.7-0.3,3.5-0.3,5.1,0.2c2.2,0.7,2.8-0.2,2.6-2.3
		C82.2,60.1,82.2,57.6,82.3,55.1z"/>
	<path d="M42.8,89.5c-3.7,0.1-7.5,0.1-11.2,0c-4.1-0.1-6.2-2.1-6.2-6.1c0-2.9,0-5.8,0-8.7c0-5.9,0-6-6-5.9c-3.1,0.1-7.2-1.4-8.9,0.6
		c-1.5,1.7-0.3,5.7-0.3,8.7H10v4.5c0,10.3,5.8,17.8,15.9,20.2c5.9,1.4,11.9,0.5,17.8,0.7c1.5,0,1.2-1,1.2-1.9c0-3.3-0.1-6.6,0-9.9
		C45.1,90,44.6,89.4,42.8,89.5z"/>
	<path class="st0" d="M42.8,19c-3.4,0.1-6.9,0-10.3,0c-3.4,0-6.9,0-10.3,0c-1.4,0-2.3,0.2-2.2,1.9c0.1,3.3,0.1,6.6,0,10
		c0,1.5,0.5,1.9,1.9,1.9c2.4-0.1,4.9,0.1,7.3-0.1c2.1-0.2,2.6,0.7,2.5,2.6c-0.1,2.2,0,4.4-0.1,6.6c-0.1,1.6,0.5,2.1,2.1,2.1
		c3.1-0.1,6.3-0.1,9.4,0c1.4,0,1.9-0.5,1.9-1.9c-0.1-7-0.1-14.1,0-21.1C45,19.2,44.2,18.9,42.8,19z"/>
</g>
</svg>
